<svg width="191" height="32" viewBox="0 0 191 32" fill="none" xmlns="http://www.w3.org/2000/svg">
<path d="M0.642046 31V9.18182H5.55682V12.8892H5.8125C6.26705 11.6392 7.01989 10.6638 8.07102 9.96307C9.12216 9.25284 10.3769 8.89773 11.8352 8.89773C13.3125 8.89773 14.5578 9.25758 15.571 9.97727C16.5938 10.6875 17.3134 11.6581 17.7301 12.8892H17.9574C18.4403 11.6771 19.2547 10.7112 20.4006 9.99148C21.5559 9.26231 22.9242 8.89773 24.5057 8.89773C26.5133 8.89773 28.1515 9.5322 29.4205 10.8011C30.6894 12.0701 31.3239 13.9214 31.3239 16.3551V31H26.1676V17.1506C26.1676 15.7964 25.8078 14.8068 25.0881 14.1818C24.3684 13.5473 23.4877 13.2301 22.446 13.2301C21.2055 13.2301 20.2348 13.6184 19.5341 14.3949C18.8428 15.1619 18.4972 16.161 18.4972 17.392V31H13.4545V16.9375C13.4545 15.8106 13.1136 14.911 12.4318 14.2386C11.7595 13.5663 10.8788 13.2301 9.78977 13.2301C9.05114 13.2301 8.37879 13.4195 7.77273 13.7983C7.16667 14.1676 6.68371 14.6932 6.32386 15.375C5.96402 16.0473 5.78409 16.8333 5.78409 17.733V31H0.642046ZM42.8189 31.4403C41.4363 31.4403 40.1911 31.1941 39.0831 30.7017C37.9846 30.1998 37.1134 29.4612 36.4695 28.4858C35.835 27.5104 35.5178 26.3078 35.5178 24.8778C35.5178 23.6468 35.745 22.6288 36.1996 21.8239C36.6541 21.0189 37.2744 20.375 38.0604 19.892C38.8464 19.4091 39.7318 19.0445 40.7166 18.7983C41.7109 18.5426 42.7384 18.358 43.799 18.2443C45.0774 18.1117 46.1143 17.9934 46.9098 17.8892C47.7053 17.7756 48.2829 17.6051 48.6428 17.3778C49.0121 17.1411 49.1967 16.7765 49.1967 16.2841V16.1989C49.1967 15.1288 48.8795 14.3002 48.245 13.7131C47.6106 13.1259 46.6967 12.8324 45.5036 12.8324C44.2441 12.8324 43.245 13.107 42.5064 13.6562C41.7772 14.2055 41.2848 14.8542 41.0291 15.6023L36.228 14.9205C36.6068 13.5947 37.2318 12.4867 38.103 11.5966C38.9742 10.697 40.0395 10.0246 41.299 9.57955C42.5585 9.125 43.9505 8.89773 45.4751 8.89773C46.5263 8.89773 47.5727 9.02083 48.6143 9.26705C49.656 9.51326 50.6077 9.92045 51.4695 10.4886C52.3312 11.0473 53.0225 11.8097 53.5433 12.7756C54.0736 13.7415 54.3388 14.9489 54.3388 16.3977V31H49.3956V28.0028H49.2251C48.9126 28.6089 48.4723 29.1771 47.9041 29.7074C47.3454 30.2282 46.6399 30.6496 45.7876 30.9716C44.9448 31.2841 43.9553 31.4403 42.8189 31.4403ZM44.1541 27.6619C45.1863 27.6619 46.0812 27.4583 46.8388 27.0511C47.5964 26.6345 48.1787 26.0852 48.5859 25.4034C49.0026 24.7216 49.2109 23.9782 49.2109 23.1733V20.6023C49.05 20.7348 48.7753 20.858 48.3871 20.9716C48.0083 21.0852 47.5821 21.1847 47.1087 21.2699C46.6352 21.3551 46.1664 21.4309 45.7024 21.4972C45.2384 21.5634 44.8359 21.6203 44.495 21.6676C43.728 21.7718 43.0414 21.9422 42.4354 22.179C41.8293 22.4157 41.3511 22.7472 41.0007 23.1733C40.6503 23.59 40.4751 24.1297 40.4751 24.7926C40.4751 25.7396 40.8208 26.4545 41.5121 26.9375C42.2034 27.4205 43.084 27.6619 44.1541 27.6619ZM64.1967 24.1534L64.1825 17.946H65.0064L72.8473 9.18182H78.8558L69.2109 19.9205H68.1456L64.1967 24.1534ZM59.5092 31V1.90909H64.6513V31H59.5092ZM73.2024 31L66.1001 21.071L69.5661 17.4489L79.353 31H73.2024ZM91.0433 31.4261C88.8558 31.4261 86.9666 30.9716 85.3757 30.0625C83.7943 29.1439 82.5774 27.8466 81.7251 26.1705C80.8729 24.4848 80.4467 22.5009 80.4467 20.2188C80.4467 17.9744 80.8729 16.0047 81.7251 14.3097C82.5869 12.6051 83.7895 11.2794 85.3331 10.3324C86.8767 9.37595 88.6901 8.89773 90.7734 8.89773C92.1181 8.89773 93.3871 9.11553 94.5803 9.55114C95.7829 9.97727 96.8435 10.6402 97.7621 11.5398C98.6901 12.4394 99.4193 13.5852 99.9496 14.9773C100.48 16.3598 100.745 18.0076 100.745 19.9205V21.4972H82.8615V18.0312H95.8161C95.8066 17.0464 95.5935 16.1705 95.1768 15.4034C94.7602 14.6269 94.1778 14.0161 93.4297 13.571C92.6911 13.1259 91.8293 12.9034 90.8445 12.9034C89.7933 12.9034 88.87 13.1591 88.0746 13.6705C87.2791 14.1723 86.6589 14.8352 86.2138 15.6591C85.7782 16.4735 85.5556 17.3684 85.5462 18.3438V21.3693C85.5462 22.6383 85.7782 23.7273 86.2422 24.6364C86.7062 25.536 87.3549 26.2273 88.1882 26.7102C89.0215 27.1837 89.9969 27.4205 91.1143 27.4205C91.8625 27.4205 92.5395 27.3163 93.1456 27.108C93.7517 26.8902 94.2772 26.5729 94.7223 26.1562C95.1674 25.7396 95.5036 25.2235 95.7308 24.608L100.532 25.1477C100.229 26.4167 99.6513 27.5246 98.799 28.4716C97.9562 29.4091 96.8767 30.1383 95.5604 30.6591C94.2441 31.1705 92.7384 31.4261 91.0433 31.4261Z" fill="white"/>
<path d="M105.322 31V1.90909H123.959V6.3267H110.592V14.2244H122.68V18.642H110.592V31H105.322ZM128.533 31V9.18182H133.675V31H128.533ZM131.118 6.08523C130.304 6.08523 129.603 5.81534 129.016 5.27557C128.429 4.72632 128.135 4.06818 128.135 3.30114C128.135 2.52462 128.429 1.86648 129.016 1.3267C129.603 0.777461 130.304 0.50284 131.118 0.50284C131.942 0.50284 132.643 0.777461 133.22 1.3267C133.807 1.86648 134.101 2.52462 134.101 3.30114C134.101 4.06818 133.807 4.72632 133.22 5.27557C132.643 5.81534 131.942 6.08523 131.118 6.08523ZM144.104 1.90909V31H138.962V1.90909H144.104ZM159.051 31.4261C156.864 31.4261 154.974 30.9716 153.384 30.0625C151.802 29.1439 150.585 27.8466 149.733 26.1705C148.881 24.4848 148.455 22.5009 148.455 20.2188C148.455 17.9744 148.881 16.0047 149.733 14.3097C150.595 12.6051 151.797 11.2794 153.341 10.3324C154.884 9.37595 156.698 8.89773 158.781 8.89773C160.126 8.89773 161.395 9.11553 162.588 9.55114C163.791 9.97727 164.851 10.6402 165.77 11.5398C166.698 12.4394 167.427 13.5852 167.957 14.9773C168.488 16.3598 168.753 18.0076 168.753 19.9205V21.4972H150.869V18.0312H163.824C163.814 17.0464 163.601 16.1705 163.185 15.4034C162.768 14.6269 162.186 14.0161 161.438 13.571C160.699 13.1259 159.837 12.9034 158.852 12.9034C157.801 12.9034 156.878 13.1591 156.082 13.6705C155.287 14.1723 154.667 14.8352 154.222 15.6591C153.786 16.4735 153.563 17.3684 153.554 18.3438V21.3693C153.554 22.6383 153.786 23.7273 154.25 24.6364C154.714 25.536 155.363 26.2273 156.196 26.7102C157.029 27.1837 158.005 27.4205 159.122 27.4205C159.87 27.4205 160.547 27.3163 161.153 27.108C161.759 26.8902 162.285 26.5729 162.73 26.1562C163.175 25.7396 163.511 25.2235 163.739 24.608L168.54 25.1477C168.237 26.4167 167.659 27.5246 166.807 28.4716C165.964 29.4091 164.884 30.1383 163.568 30.6591C162.252 31.1705 160.746 31.4261 159.051 31.4261ZM190.347 14.9489L185.66 15.4602C185.527 14.9867 185.295 14.5417 184.964 14.125C184.642 13.7083 184.206 13.3722 183.657 13.1165C183.108 12.8608 182.435 12.733 181.64 12.733C180.57 12.733 179.67 12.965 178.941 13.429C178.221 13.893 177.866 14.4943 177.876 15.233C177.866 15.8674 178.098 16.3835 178.572 16.7812C179.055 17.179 179.85 17.5057 180.958 17.7614L184.68 18.5568C186.744 19.0019 188.278 19.7074 189.282 20.6733C190.295 21.6392 190.807 22.9034 190.816 24.4659C190.807 25.839 190.404 27.0511 189.609 28.1023C188.823 29.1439 187.729 29.9583 186.327 30.5455C184.926 31.1326 183.316 31.4261 181.498 31.4261C178.827 31.4261 176.678 30.8674 175.049 29.75C173.42 28.6231 172.45 27.0559 172.137 25.0483L177.151 24.5653C177.379 25.5502 177.862 26.2936 178.6 26.7955C179.339 27.2973 180.3 27.5483 181.484 27.5483C182.705 27.5483 183.685 27.2973 184.424 26.7955C185.172 26.2936 185.546 25.6733 185.546 24.9347C185.546 24.3097 185.305 23.7936 184.822 23.3864C184.348 22.9792 183.61 22.6667 182.606 22.4489L178.884 21.6676C176.791 21.232 175.243 20.4981 174.239 19.4659C173.236 18.4242 172.738 17.108 172.748 15.517C172.738 14.1723 173.103 13.0076 173.842 12.0227C174.59 11.0284 175.627 10.2614 176.952 9.72159C178.288 9.17235 179.826 8.89773 181.569 8.89773C184.126 8.89773 186.138 9.44223 187.606 10.5312C189.083 11.6203 189.997 13.0928 190.347 14.9489Z" fill="#1A8FE3"/>
</svg>
